<svg xmlns="http://www.w3.org/2000/svg" xmlns:xlink="http://www.w3.org/1999/xlink" viewBox="0 0 235.75 75.14"><defs><style>.cls-1{fill:none;}.cls-2{clip-path:url(#clip-path);}.cls-3{fill:#2d4255;}.cls-4{clip-path:url(#clip-path-2);}.cls-5{fill:url(#linear-gradient);}.cls-6{fill:#ed7518;}</style><clipPath id="clip-path" transform="translate(18.75 18.82)"><rect class="cls-1" width="217" height="37.49"/></clipPath><clipPath id="clip-path-2" transform="translate(18.75 18.82)"><path class="cls-1" d="M13.15,27.12l6.46,6.45H6.69ZM13.15,0a2,2,0,0,0,0,3.92H30.8l-7.27,7.27H2A2,2,0,0,0,.15,12.4a1.87,1.87,0,0,0-.15.73v0a2,2,0,0,0,.57,1.36l9.81,9.8L.57,34.15A2,2,0,0,0,0,35.51v.05a1.82,1.82,0,0,0,.15.72A2,2,0,0,0,2,37.49H24.34a2,2,0,0,0,1.39-3.34L17.88,26.3H35.53a2,2,0,1,0,0-3.92H14L6.69,15.11H24.34a2,2,0,0,0,1.39-.57L36.92,3.35a2,2,0,0,0,.43-2.14A2,2,0,0,0,35.53,0Z"/></clipPath><linearGradient id="linear-gradient" x1="-482.82" y1="512.08" x2="-481.42" y2="512.08" gradientTransform="matrix(29.77, 0, 0, -29.77, 14369.82, 15261.65)" gradientUnits="userSpaceOnUse"><stop offset="0" stop-color="#e51948"/><stop offset="0.49" stop-color="#e6392c"/><stop offset="1" stop-color="#ed7402"/><stop offset="1" stop-color="#ed7402"/></linearGradient></defs><title>Asset 1</title><g id="Layer_2" data-name="Layer 2"><g id="Layer_1-2" data-name="Layer 1"><g class="cls-2"><path class="cls-3" d="M90.24,5.2H93A2,2,0,0,1,95.1,7.45V20.83c0,4.83,1.91,7.08,6,7.08s6-2.37,6-7V7.45a2,2,0,0,1,2.17-2.25h.56A2,2,0,0,1,112,7.45V21c0,7.4-3.74,11.31-10.83,11.31s-10.9-4-10.9-11.39Z" transform="translate(18.75 18.82)"/><path class="cls-3" d="M145.28,18.05A5.66,5.66,0,0,0,149,12.57c0-4.55-3.21-7-9-7h-9.64a1.46,1.46,0,0,0-1.09.36,2.27,2.27,0,0,0-.32,1.67c0,.21,0,.42,0,.66v5.1h2.79a2,2,0,0,0,2-2V9.58h5.81c3.14,0,4.42.94,4.42,3.24,0,2.88-2.37,3.54-4.34,3.59h-8a2.72,2.72,0,0,0-2.72,2.72V31a1,1,0,0,0,1,1h9.94C146.66,32,150,29.5,150,24.4a6.48,6.48,0,0,0-4.7-6.35m-.28,6c0,2.36-.88,3.82-5.25,3.82H133.7V20.42h6.17c3.55,0,5.13,1.13,5.13,3.67" transform="translate(18.75 18.82)"/><path class="cls-3" d="M168.19,5.36h-.56a2,2,0,0,0-2.13,2.25V32.14h2.29a2.41,2.41,0,0,0,2.57-2.52v-22a2,2,0,0,0-2.17-2.25" transform="translate(18.75 18.82)"/><path class="cls-3" d="M73.48,12.37c-1.26,1.2-2.32.71-3.25-.28a7.88,7.88,0,0,0-6.08-2.62c-5,0-8.55,3.91-8.55,9.3S59.08,28,64.07,28a8.34,8.34,0,0,0,6.39-2.84,1.75,1.75,0,0,1,2.21-.37l2.07,1.59A12.27,12.27,0,0,1,64,32.49c-7.92,0-13.45-5.67-13.45-13.8S56.06,5,63.91,5A12.66,12.66,0,0,1,73,8.38c1.54,1.53,2,2.38.73,3.75l-.23.24" transform="translate(18.75 18.82)"/><path class="cls-3" d="M209.22,12.37c-1.26,1.2-2.32.71-3.25-.28a7.88,7.88,0,0,0-6.08-2.62c-4.95,0-8.55,3.91-8.55,9.3S194.82,28,199.81,28a8.34,8.34,0,0,0,6.39-2.84,1.75,1.75,0,0,1,2.21-.37l2.07,1.59a12.26,12.26,0,0,1-10.71,6.08c-7.92,0-13.45-5.67-13.45-13.8S191.81,5,199.65,5a12.64,12.64,0,0,1,9.07,3.38c1.54,1.53,2,2.38.73,3.75l-.23.24" transform="translate(18.75 18.82)"/></g><g class="cls-4"><rect class="cls-5" x="-7.74" y="-7.82" width="53.13" height="53.13" transform="translate(11 37.63) rotate(-45)"/></g><g class="cls-2"><path class="cls-3" d="M211.15,5.36a.27.27,0,0,1-.31-.3V5c0-.18.11-.28.31-.28h2c.21,0,.32.1.32.28v0c0,.2-.11.3-.32.3h-.66V7.45a.28.28,0,0,1-.3.31h-.1c-.18,0-.28-.11-.28-.31V5.36Z" transform="translate(18.75 18.82)"/><path class="cls-3" d="M214.05,7.45V5.09a.31.31,0,0,1,.33-.35h.19c.21,0,.27.07.35.24l.61,1.41.6-1.41c.09-.18.16-.24.35-.24h.18a.31.31,0,0,1,.34.35V7.45c0,.2-.07.31-.27.31h-.1c-.19,0-.27-.11-.27-.31V5.68l-.49,1.2c-.05.12-.08.21-.35.21s-.29-.09-.34-.21l-.49-1.18V7.45c0,.2-.08.31-.27.31h-.11c-.19,0-.26-.11-.26-.31" transform="translate(18.75 18.82)"/></g><path class="cls-6" d="M38.28.58A.16.16,0,0,1,38.1.41h0a.16.16,0,0,1,.18-.17h1.19c.12,0,.18.06.18.17h0c0,.11-.06.17-.18.17h-.39V1.8A.17.17,0,0,1,38.9,2h0c-.12,0-.17-.07-.17-.19V.58Z" transform="translate(18.75 18.82)"/><path class="cls-6" d="M40,1.8V.42a.18.18,0,0,1,.2-.2h.11a.2.2,0,0,1,.21.14l.35.83.36-.83c0-.11.09-.14.2-.14h.11a.18.18,0,0,1,.2.2V1.8c0,.12,0,.19-.16.19H41.5c-.11,0-.16-.07-.16-.19v-1l-.29.71c0,.06,0,.12-.2.12s-.17-.05-.2-.12l-.29-.7v1c0,.12,0,.19-.16.19h-.06C40,2,40,1.92,40,1.8Z" transform="translate(18.75 18.82)"/></g></g></svg>