<svg xmlns="http://www.w3.org/2000/svg" viewBox="0 0 26 26"><defs><style>.cls-1{fill:#db4b32;}</style></defs><title>Asset 4</title><g id="Layer_2" data-name="Layer 2"><g id="Layer_1-2" data-name="Layer 1"><path class="cls-1" d="M13,10.11A2.89,2.89,0,1,0,15.89,13,2.89,2.89,0,0,0,13,10.11Z"/><path class="cls-1" d="M18.11,19.75a2.86,2.86,0,0,0,1.65-1.65c.45-1.13.35-3.84.35-5.1s.1-4-.35-5.11a2.89,2.89,0,0,0-1.65-1.64C17,5.8,14.27,5.89,13,5.89s-4-.1-5.11.36A2.88,2.88,0,0,0,6.25,7.89C5.8,9,5.9,11.74,5.9,13s-.1,4,.35,5.1a2.84,2.84,0,0,0,1.64,1.65c1.14.45,3.85.36,5.11.36S17,20.21,18.11,19.75ZM17.63,7.34a1,1,0,0,1,0,2.07,1,1,0,1,1,0-2.07ZM8.56,13A4.45,4.45,0,1,1,13,17.45,4.44,4.44,0,0,1,8.56,13Z"/><path class="cls-1" d="M26,13A13,13,0,1,0,13,26,13,13,0,0,0,26,13ZM5.8,20.2a5.13,5.13,0,0,1-1.41-3.63c-.07-1.43-.07-5.72,0-7.15A5.13,5.13,0,0,1,5.8,5.79a5.17,5.17,0,0,1,3.63-1.4c1.43-.08,5.71-.08,7.14,0A5.1,5.1,0,0,1,20.2,5.8a5.13,5.13,0,0,1,1.41,3.63c.07,1.43.07,5.71,0,7.14A5.13,5.13,0,0,1,20.2,20.2a5.1,5.1,0,0,1-3.63,1.41c-1.43.07-5.71.07-7.14,0A5.13,5.13,0,0,1,5.8,20.2Z"/></g></g></svg>