<svg xmlns="http://www.w3.org/2000/svg" viewBox="0 0 26 26"><defs><style>.cls-1{fill:#db4b32;}</style></defs><title>Asset 2</title><g id="Layer_2" data-name="Layer 2"><g id="Layer_1-2" data-name="Layer 1"><path class="cls-1" d="M26,13A13,13,0,1,0,13,26,13,13,0,0,0,26,13ZM8.94,20.31H5.69V9.76H8.94ZM8.47,8.45a1.64,1.64,0,0,1-2.3,0A1.5,1.5,0,0,1,5.69,7.3a1.51,1.51,0,0,1,.48-1.15,1.67,1.67,0,0,1,2.3,0A1.54,1.54,0,0,1,8.94,7.3,1.52,1.52,0,0,1,8.47,8.45Zm2.09,1.3h3.26v.5A4.87,4.87,0,0,1,16,9.85a4.53,4.53,0,0,1,2.1.52A4.35,4.35,0,0,1,19.69,12a4.3,4.3,0,0,1,.62,2.2v6.11H17.06V14.2a1.1,1.1,0,0,0-.19-.57,1,1,0,0,0-.38-.4,1.13,1.13,0,0,0-.65-.15,1.56,1.56,0,0,0-.68.12l-1.34.66v6.45H10.56Z"/></g></g></svg>