<svg xmlns="http://www.w3.org/2000/svg" viewBox="0 0 26 26"><defs><style>.cls-1{fill:#db4b32;}</style></defs><title>Asset 1</title><g id="Layer_2" data-name="Layer 2"><g id="Layer_1-2" data-name="Layer 1"><polygon class="cls-1" points="10.02 13.8 6.83 13.8 6.83 14.58 7.82 14.58 7.82 19.95 8.82 19.95 8.82 19.95 8.82 14.6 10.02 14.6 10.02 13.8"/><path class="cls-1" d="M14,15.57V13.8H13v6.11h.82l.08-.38c1,1,1.7.3,1.7-.85V16.28C15.6,15.38,14.92,14.84,14,15.57Zm.86,3.27a.41.41,0,0,1-.44.36.4.4,0,0,1-.43-.36V16.17a.4.4,0,0,1,.43-.36.41.41,0,0,1,.44.36Z"/><path class="cls-1" d="M12.83,10.34a.46.46,0,0,0,.44-.48V7.34a.45.45,0,1,0-.89,0V9.86A.47.47,0,0,0,12.83,10.34Z"/><path class="cls-1" d="M11.41,18.25c0,.42,0,.62,0,.7s-.45.45-.59,0c0-.08,0-.3,0-.7V15.4h-1v2.83c0,.43,0,.76,0,.9s0,.56.25.74a1.22,1.22,0,0,0,1.53-.51V20h.8V15.4h-1Z"/><path class="cls-1" d="M16.75,15.37a1.07,1.07,0,0,0-.43.56,3.35,3.35,0,0,0-.12,1v1.42c0,2.35,2.86,2,2.52,0H18v.52a.4.4,0,0,1-.41.4h-.14a.4.4,0,0,1-.41-.4V17.77h1.71v-.64a9.89,9.89,0,0,0,0-1.21C18.55,15.06,17.35,14.94,16.75,15.37ZM18,17H17v-.56a.44.44,0,0,1,.44-.44h.06a.45.45,0,0,1,.45.44Z"/><path class="cls-1" d="M13,0A13,13,0,1,0,26,13,13,13,0,0,0,13,0Zm1.77,6.25h.91V9.93a.37.37,0,0,0,.36.37.36.36,0,0,0,.37-.37V6.25h.88V11H16.17l0-.39a1.07,1.07,0,0,1-.28.36.67.67,0,0,1-.39.12.76.76,0,0,1-.41-.11.83.83,0,0,1-.24-.31,2.48,2.48,0,0,1-.1-.39c0-.14,0-.41,0-.82ZM12,6.3a1.23,1.23,0,0,1,.76-.23,1.49,1.49,0,0,1,.66.15,1.06,1.06,0,0,1,.42.39,1.24,1.24,0,0,1,.21.49,3.66,3.66,0,0,1,.06.77v1.2a5.57,5.57,0,0,1-.06,1,1.4,1.4,0,0,1-.21.57,1,1,0,0,1-.43.39,1.17,1.17,0,0,1-.61.13,1.76,1.76,0,0,1-.64-.1,1,1,0,0,1-.41-.33,1.4,1.4,0,0,1-.2-.53,4.42,4.42,0,0,1-.07-.94V8a3.67,3.67,0,0,1,.12-1.06A1.2,1.2,0,0,1,12,6.3ZM9.12,4.39,9.79,6.7l.66-2.3h1.14L10.36,7.5v3.63h-1V7.5L8,4.39Zm11.06,15a2.3,2.3,0,0,1-2.35,2.22H8.17a2.3,2.3,0,0,1-2.35-2.22V14.32A2.3,2.3,0,0,1,8.17,12.1h9.66a2.3,2.3,0,0,1,2.35,2.22Z"/></g></g></svg>